<?xml version="1.0" standalone="no"?>
<!DOCTYPE svg PUBLIC "-//W3C//DTD SVG 20010904//EN"
 "http://www.w3.org/TR/2001/REC-SVG-20010904/DTD/svg10.dtd">
<svg version="1.0" xmlns="http://www.w3.org/2000/svg"
 width="197.000000pt" height="256.000000pt" viewBox="0 0 197.000000 256.000000"
 preserveAspectRatio="xMidYMid meet">

<g transform="translate(0.000000,256.000000) scale(0.100000,-0.100000)"
fill="#000000" stroke="none">
<path d="M884 2530 c-32 -16 -74 -43 -92 -60 -29 -28 -31 -35 -26 -70 13 -80
-30 -122 -152 -154 -69 -18 -254 -22 -284 -6 -10 5 -27 26 -39 46 -19 32 -25
36 -52 30 -55 -11 -195 -82 -217 -111 -12 -15 -22 -41 -22 -57 0 -37 52 -163
84 -203 23 -29 24 -29 65 -15 37 12 43 12 62 -6 64 -58 100 -234 65 -318 -16
-39 -42 -51 -80 -36 -41 15 -64 -2 -72 -55 -15 -101 32 -304 74 -320 8 -3 25
1 38 10 49 32 64 18 84 -80 17 -86 64 -209 101 -266 36 -57 99 -122 153 -157
25 -18 47 -45 65 -82 20 -43 41 -66 95 -107 85 -64 224 -143 251 -143 27 0
166 79 251 143 52 40 76 66 99 110 19 36 45 68 71 86 122 86 206 229 244 416
20 98 35 112 84 80 13 -9 30 -13 38 -10 42 16 89 219 74 320 -8 53 -31 70 -72
55 -38 -15 -64 -3 -80 36 -35 84 1 260 65 318 19 18 25 18 62 6 40 -13 42 -13
62 10 32 39 79 148 84 193 4 33 0 48 -18 71 -23 30 -162 101 -218 112 -27 6
-33 2 -52 -30 -12 -20 -29 -41 -39 -46 -30 -16 -215 -12 -284 6 -122 32 -165
74 -152 154 5 35 3 42 -26 70 -49 46 -144 90 -193 90 -26 0 -63 -11 -101 -30z
m101 -330 c-18 -20 -18 -21 1 -34 15 -12 17 -17 7 -27 -23 -23 -15 -35 20 -31
26 3 40 -3 72 -32 21 -20 43 -36 47 -36 12 0 10 -30 -2 -31 -5 -1 -14 -2 -19
-3 -38 -5 -5 -45 38 -46 29 0 61 -26 61 -50 0 -38 23 -80 46 -86 40 -10 28
-27 -13 -20 -44 8 -73 37 -73 75 0 14 -5 33 -10 41 -8 12 -10 10 -10 -10 0
-14 -5 -32 -10 -40 -6 -11 -3 -22 14 -40 15 -15 26 -43 29 -72 8 -57 1 -78
-24 -78 -20 0 -26 15 -9 25 19 12 10 63 -16 94 -29 34 -47 32 -38 -4 5 -20 0
-27 -35 -45 -28 -14 -41 -27 -39 -38 2 -9 -5 -18 -15 -20 -28 -6 -13 36 23 68
l28 25 -21 36 -22 36 -40 -14 c-22 -8 -55 -15 -73 -14 -29 0 -35 -4 -48 -34
-21 -51 -18 -62 21 -76 32 -12 52 -35 40 -47 -2 -3 -26 8 -52 24 -46 29 -48
32 -54 85 -8 70 -13 79 -49 79 -33 0 -32 -11 6 -69 20 -30 23 -62 5 -61 -3 1
-23 35 -44 77 -43 83 -41 93 21 93 27 0 32 4 32 24 0 13 3 39 6 57 l6 34 -29
-31 c-15 -17 -33 -39 -39 -49 -6 -12 -15 -16 -23 -10 -10 5 -11 21 -5 59 4 28
7 63 6 77 -1 32 30 49 87 49 32 0 45 -6 69 -34 17 -19 33 -43 36 -53 9 -29 42
-45 56 -28 13 15 -9 43 -59 76 l-24 15 24 34 c28 39 102 110 108 104 2 -2 -4
-13 -14 -24z m565 -646 c28 -58 72 -82 119 -66 26 9 33 9 38 -4 9 -23 -5 -129
-22 -169 -13 -34 -17 -36 -48 -30 -48 9 -64 -11 -117 -147 -65 -171 -83 -200
-173 -290 -45 -46 -93 -103 -105 -128 -15 -31 -42 -59 -84 -90 -87 -64 -150
-100 -174 -100 -46 0 -224 133 -249 187 -10 21 -52 72 -94 114 -83 83 -140
170 -171 264 -11 33 -35 89 -53 125 l-32 65 -44 0 c-42 0 -44 2 -57 38 -7 21
-15 66 -16 100 l-3 62 44 -3 c55 -3 85 16 113 73 l22 45 542 0 542 0 22 -46z"/>
<path d="M917 2115 c-8 -20 -4 -29 11 -24 5 2 6 13 2 23 -6 19 -7 19 -13 1z"/>
<path d="M1046 1997 c3 -10 9 -15 12 -12 3 3 0 11 -7 18 -10 9 -11 8 -5 -6z"/>
<path d="M1605 541 c-9 -16 -38 -251 -31 -258 17 -17 34 30 45 122 7 55 15
110 18 123 4 15 1 22 -10 22 -9 0 -18 -4 -22 -9z"/>
<path d="M1704 511 c-55 -34 -83 -141 -45 -175 17 -16 22 -16 55 -2 37 16 53
37 41 56 -5 8 -13 6 -26 -6 -18 -16 -49 -14 -49 4 0 5 23 19 50 30 44 18 50
24 50 51 0 27 -21 61 -38 61 -4 0 -21 -9 -38 -19z m36 -44 c0 -13 -48 -42 -56
-34 -2 2 3 13 12 25 17 24 44 30 44 9z"/>
<path d="M1480 425 c-14 -7 -32 -16 -41 -18 -12 -4 -20 -35 -33 -128 -10 -68
-18 -124 -19 -125 -1 -1 -43 -30 -94 -63 -51 -34 -96 -67 -100 -74 -4 -7 6 -3
22 7 177 116 381 193 558 211 62 6 67 8 67 31 0 21 -4 24 -37 24 -58 0 -188
-35 -282 -74 -47 -20 -87 -34 -89 -31 -9 9 9 56 21 52 22 -8 64 22 81 57 23
49 21 122 -3 136 -24 12 -21 13 -51 -5z m30 -77 c0 -33 -24 -68 -47 -68 -21 0
-16 67 7 90 26 26 40 18 40 -22z"/>
<path d="M1307 350 c-14 -11 -36 -20 -50 -20 -13 0 -30 -6 -37 -14 -6 -8 -17
-13 -25 -10 -7 3 -17 0 -21 -8 -8 -13 -35 -180 -30 -185 2 -2 10 -1 18 2 10 4
19 30 26 72 19 112 68 130 53 20 -7 -50 -6 -57 8 -55 15 3 25 30 36 100 6 40
30 72 46 62 5 -3 7 -33 3 -70 -6 -57 -5 -64 10 -58 17 7 21 19 31 97 11 84
-14 109 -68 67z"/>
<path d="M1104 272 c-7 -4 -15 -33 -19 -65 -14 -109 -70 -134 -58 -27 6 61 -6
80 -25 43 -12 -24 -23 -128 -16 -147 8 -20 48 -21 64 -2 6 8 17 13 24 10 21
-8 33 17 45 99 15 106 15 109 -15 89z"/>
<path d="M881 179 c-50 -46 -66 -132 -31 -164 17 -15 24 -16 49 -5 38 15 69
59 50 70 -7 5 -19 0 -29 -13 -34 -42 -66 4 -39 56 15 28 30 38 50 32 19 -6 44
19 34 35 -11 17 -60 11 -84 -11z"/>
</g>
</svg>
